<?xml version="1.0" standalone="no"?>
<!DOCTYPE svg PUBLIC "-//W3C//DTD SVG 20010904//EN"
 "http://www.w3.org/TR/2001/REC-SVG-20010904/DTD/svg10.dtd">
<svg version="1.0" xmlns="http://www.w3.org/2000/svg"
 width="159.000000pt" height="159.000000pt" viewBox="0 0 159.000000 159.000000"
 preserveAspectRatio="xMidYMid meet">
<metadata>
Created by potrace 1.14, written by Peter Selinger 2001-2017
</metadata>
<g transform="translate(0.000000,159.000000) scale(0.100000,-0.100000)"
fill="#000000" stroke="none">
<path d="M776 1426 c-8 -14 -25 -42 -37 -63 -44 -79 -293 -509 -306 -529 -12
-19 -11 -25 13 -53 14 -17 29 -31 32 -31 4 0 8 17 8 39 4 86 67 141 153 133
l42 -4 -3 -42 c-4 -41 -4 -41 -46 -42 -24 -1 -45 -4 -48 -6 -10 -11 -14 -64
-5 -77 14 -21 78 10 129 63 40 41 41 42 30 86 -13 58 2 118 43 165 l31 35 39
-21 39 -20 -26 -27 c-28 -30 -44 -63 -44 -92 0 -18 2 -18 34 -5 18 8 46 13 62
11 16 -2 34 -4 40 -5 19 -2 72 -62 83 -92 9 -27 8 -30 -28 -49 l-38 -19 -9 31
c-12 41 -35 55 -70 43 -15 -6 -29 -15 -31 -22 -5 -14 71 -60 122 -74 34 -10
38 -8 73 25 20 20 41 36 47 36 6 0 19 6 29 13 16 11 10 24 -65 152 -45 77 -91
156 -102 175 -23 42 -107 186 -124 215 -7 11 -17 30 -22 42 -15 33 -27 35 -45
9z"/>
<path d="M751 736 c-18 -19 -59 -46 -91 -60 -58 -26 -58 -27 -49 -59 12 -41
12 -103 0 -145 -8 -27 -7 -32 7 -32 21 0 129 -52 161 -78 l24 -20 48 38 c27
21 69 46 94 55 45 18 45 18 38 54 -5 20 -8 68 -8 108 l0 72 -45 17 c-49 19
-115 57 -125 74 -10 16 -19 12 -54 -24z"/>
<path d="M1163 748 c-46 -12 -48 -23 -8 -48 69 -43 84 -131 35 -198 -22 -29
-24 -30 -50 -17 -40 20 -55 41 -37 52 44 26 37 84 -12 101 -30 11 -31 10 -32
-21 -2 -46 0 -66 12 -118 9 -42 14 -47 48 -58 49 -14 86 -44 117 -93 30 -47
27 -58 -19 -86 l-35 -20 -6 29 c-5 28 -46 79 -63 79 -4 0 -9 -14 -10 -30 -5
-64 -69 -120 -137 -120 -56 0 -63 6 -57 48 6 35 8 37 46 39 41 1 65 22 65 55
0 39 -67 15 -138 -49 -32 -30 -32 -30 -21 -80 9 -38 9 -59 0 -83 -6 -18 -9
-35 -7 -38 7 -6 716 -5 723 2 3 3 -2 16 -10 30 -9 14 -26 41 -37 60 -46 82
-63 111 -189 331 -73 127 -136 233 -139 236 -4 3 -21 2 -39 -3z"/>
<path d="M347 683 c-13 -21 -37 -63 -54 -93 -17 -30 -88 -153 -157 -274 -70
-120 -125 -220 -122 -223 4 -4 538 -7 703 -4 37 1 42 4 52 32 6 18 11 40 11
51 0 17 -2 17 -27 4 -80 -41 -154 -14 -197 71 l-16 32 39 21 c22 11 42 20 45
20 2 0 7 -14 11 -30 8 -38 35 -53 68 -41 54 21 37 49 -51 88 -68 30 -85 29
-130 -6 -42 -33 -91 -51 -136 -51 -45 0 -59 13 -61 58 l-2 41 47 -6 c29 -3 56
-1 70 7 l24 13 -27 19 c-61 44 -73 115 -32 185 14 23 28 43 31 43 3 0 20 -11
39 -25 l33 -26 -25 -25 c-17 -18 -22 -30 -18 -47 7 -21 31 -47 45 -47 17 0 25
48 19 102 -7 61 -21 88 -46 88 -20 0 -93 41 -93 52 0 20 -22 5 -43 -29z"/>
</g>
</svg>
