<svg width="30" height="30" viewBox="0 0 30 30" fill="none" xmlns="http://www.w3.org/2000/svg">
<path d="M29.0756 0V29.7695H0V0H29.0756ZM20.353 12.5492C20.8896 12.1528 21.3818 11.6332 21.8287 10.992C21.5604 11.1144 21.2841 11.2137 21.0012 11.2898C20.7175 11.3667 20.4266 11.4205 20.1291 11.4503C20.7554 11.0838 21.1871 10.5194 21.4262 9.7557C20.7999 10.1529 20.1736 10.4127 19.5473 10.5343C18.9807 9.89307 18.2502 9.5728 17.3555 9.5728C16.5199 9.5728 15.8119 9.8632 15.2308 10.4425C14.649 11.0233 14.3588 11.7407 14.3588 12.5948C14.3588 12.7478 14.3661 12.8777 14.3814 12.9837C14.396 13.0912 14.4186 13.2054 14.4485 13.3271C13.1958 13.2659 12.0401 12.9456 10.9814 12.3656C9.92275 11.7863 9.02008 11.0375 8.27491 10.1215C8.15533 10.3664 8.05836 10.6105 7.98399 10.8546C7.90889 11.0995 7.87243 11.3585 7.87243 11.6332C7.87243 12.1528 7.99128 12.6403 8.23043 13.0987C8.46886 13.5563 8.79624 13.9229 9.21476 14.1976C8.73718 14.1976 8.29022 14.0759 7.87243 13.831C7.87243 14.5947 8.09627 15.2509 8.54323 15.8004C8.99092 16.3498 9.55672 16.7015 10.2428 16.8537C9.94462 16.915 9.69088 16.9448 9.48235 16.9448C9.39267 16.9448 9.29569 16.9448 9.19143 16.9448C9.08643 16.9448 8.99019 16.9299 8.9005 16.8993C9.10904 17.5107 9.45975 18.0146 9.95191 18.4103C10.4441 18.8074 11.0325 19.0053 11.7186 19.0053C11.2111 19.433 10.6373 19.7615 9.99639 19.9899C9.35475 20.2191 8.69124 20.3333 8.00586 20.3333C7.67702 20.3333 7.43933 20.3184 7.28985 20.2878C7.94534 20.7156 8.65406 21.0515 9.41454 21.2956C10.175 21.5405 10.9873 21.6622 11.8528 21.6622C13.2243 21.6622 14.4397 21.3949 15.4984 20.8604C16.5564 20.3266 17.4445 19.6465 18.1597 18.8224C18.8757 17.9982 19.419 17.0673 19.7923 16.0288C20.1649 14.9911 20.3515 13.9676 20.3515 12.9606V12.5492H20.353Z" fill="white"/>
</svg>
