<svg width="30" height="30" viewBox="0 0 30 30" fill="none" xmlns="http://www.w3.org/2000/svg">
<path d="M29.0756 0V29.7695H0V0H29.0756ZM21.7843 10.3044C21.7843 9.51084 21.5079 8.8315 20.9567 8.26637C20.4047 7.70199 19.7412 7.41905 18.9662 7.41905H10.0649C9.28913 7.41905 8.62562 7.70199 8.0744 8.26637C7.52245 8.8315 7.24683 9.51084 7.24683 10.3044V13.3271V19.4181C7.24683 20.2124 7.52245 20.8918 8.0744 21.4561C8.62562 22.0213 9.28913 22.3034 10.0649 22.3034H18.9669C19.742 22.3034 20.4055 22.0213 20.9574 21.4561C21.5086 20.8918 21.785 20.2124 21.785 19.4181V13.3271L21.7843 10.3044ZM18.5192 14.8851C18.5192 14.6104 18.4893 14.3432 18.4295 14.0834C18.3697 13.8243 18.2954 13.5727 18.2057 13.3279H20.3974V19.4188C20.3974 19.8466 20.2633 20.1975 19.995 20.4722C19.7266 20.7469 19.3832 20.8843 18.9662 20.8843H10.0649C9.67703 20.8843 9.34892 20.7469 9.0806 20.4722C8.81228 20.1975 8.67812 19.8466 8.67812 19.4188V13.3279H10.8254C10.6468 13.8475 10.5571 14.3663 10.5571 14.8851C10.5571 16.0146 10.9443 16.9769 11.7201 17.7705C12.4951 18.5648 13.4342 18.9612 14.5381 18.9612C15.6413 18.9612 16.5804 18.5648 17.3562 17.7705C18.1313 16.9762 18.5192 16.0146 18.5192 14.8851ZM14.5155 17.4958C13.8054 17.4958 13.1995 17.2367 12.6971 16.7171C12.1947 16.1983 11.9439 15.5876 11.9439 14.8851C11.9439 14.5806 11.9876 14.3051 12.0766 14.0602C12.1656 13.8161 12.2837 13.572 12.4317 13.3279C12.6679 12.9919 12.9705 12.7254 13.3402 12.5261C13.7099 12.3283 14.1021 12.2282 14.5155 12.2282C14.929 12.2282 15.3132 12.3275 15.6683 12.5261C16.0234 12.7254 16.3187 12.9919 16.5549 13.3279C16.8801 13.8168 17.0427 14.3357 17.0427 14.8851C17.0427 15.5876 16.7912 16.1983 16.2888 16.7171C15.7857 17.236 15.1951 17.4958 14.5155 17.4958ZM17.669 11.6788L17.6246 9.15997H19.7719H20.1299V9.48023V11.6788H17.669Z" fill="white"/>
</svg>
