<svg width="30" height="30" viewBox="0 0 30 30" fill="none" xmlns="http://www.w3.org/2000/svg">
<path d="M0 0H30V30H0V0ZM5.74316 8.19871C5.98089 9.68002 6.70386 10.4203 7.91208 10.4203H8.07082C9.16393 10.4203 9.8696 9.76804 10.1863 8.46277V8.1453C10.1863 7.17556 9.63939 6.48795 8.54628 6.08245L8.0174 5.97638C6.92429 5.97638 6.18326 6.59327 5.79582 7.82782L5.74316 8.19871ZM6.06064 12.1137V24.4916H9.86885V12.1137H6.06064ZM16.0047 13.753H15.9521V12.113H12.3018V24.4908H16.11V18.4076C16.11 16.2567 16.8857 15.1809 18.4377 15.1809C19.3367 15.1809 19.9536 15.6391 20.2891 16.5562C20.3952 17.1648 20.4479 17.8705 20.4479 18.6717V24.4901H24.2568V18.1955C24.2568 15.1802 23.6926 13.3468 22.5641 12.6945C21.8765 12.1303 20.9241 11.8482 19.7076 11.8482C18.1827 11.8489 16.9481 12.4839 16.0047 13.753Z" fill="white"/>
</svg>
