<svg width="30" height="30" viewBox="0 0 30 30" fill="none" xmlns="http://www.w3.org/2000/svg">
<path d="M29.0756 0V29.7695H0V0H29.0756ZM15.3431 12.3467V10.6092C15.3431 10.3051 15.4547 10.0911 15.6785 9.96889C15.9024 9.84739 16.1627 9.78627 16.4616 9.78627C16.6103 9.78627 16.7525 9.80193 16.8867 9.83174C17.0208 9.8623 17.147 9.89286 17.2666 9.92343C17.3854 9.95399 17.5196 9.98455 17.669 10.0151L18.0715 7.72824C17.922 7.69843 17.7135 7.65296 17.4452 7.59109C17.206 7.56127 16.9151 7.53071 16.5732 7.49941C16.2297 7.46959 15.82 7.45394 15.3431 7.45394C14.7459 7.45394 14.2698 7.55307 13.9118 7.75135C13.5538 7.95037 13.2556 8.21647 13.0172 8.5519C12.778 8.88807 12.6373 9.27642 12.5921 9.7177C12.5476 10.1605 12.525 10.5488 12.525 10.8835V12.3467H11.0493V14.5874H12.525V22.3156H15.3431V14.5881H17.5794L17.758 12.3474H15.3431V12.3467Z" fill="white"/>
</svg>
