<svg width="30" height="30" viewBox="0 0 30 30" fill="none" xmlns="http://www.w3.org/2000/svg">
<path d="M29.0756 0V29.7695H0V0H29.0756ZM21.8067 12.2368C21.7769 11.75 21.6729 11.3236 21.4948 10.9582C21.3458 10.624 21.1001 10.3271 20.7592 10.0681C20.4169 9.8098 19.9342 9.68031 19.3098 9.68031H9.76575C9.28964 9.71082 8.87386 9.81725 8.51696 9.99959C8.18986 10.1522 7.89983 10.4037 7.6476 10.7528C7.39464 11.1033 7.26889 11.5975 7.26889 12.2368V17.5335C7.29797 18.021 7.40264 18.4467 7.58073 18.8121C7.72901 19.1478 7.9747 19.444 8.31634 19.7022C8.65798 19.9612 9.14136 20.09 9.76575 20.09H19.3091C19.7845 20.0602 20.201 19.953 20.5579 19.7707C20.885 19.6189 21.1743 19.3673 21.4272 19.0175C21.6795 18.667 21.8067 18.1721 21.8067 17.5328V12.2368ZM12.5759 12.0083L17.3472 14.8848L12.5759 17.7612V12.0083Z" fill="white"/>
</svg>
